<?xml version="1.0" encoding="utf-8"?>
<!-- Generator: Adobe Illustrator 19.0.0, SVG Export Plug-In . SVG Version: 6.00 Build 0)  -->
<svg version="1.1" id="Layer_1" xmlns="http://www.w3.org/2000/svg" xmlns:xlink="http://www.w3.org/1999/xlink" x="0px" y="0px"
	 viewBox="-228 406.9 139 29" style="enable-background:new -228 406.9 139 29;" xml:space="preserve">
<style type="text/css">
	.st0{fill:#2A70B7;}
	.st1{filter:url(#Adobe_OpacityMaskFilter);}
	.st2{fill:#FFFFFF;}
	.st3{mask:url(#mask-2);}
	.st4{fill:#FF78C3;}
	.st5{filter:url(#Adobe_OpacityMaskFilter_1_);}
	.st6{mask:url(#mask-6);}
</style>
<title>logotype</title>
<desc>Created with Sketch.</desc>
<g id="symbols">
	<g id="menu-_x2F_-desktop---scrolling" transform="translate(-80.000000, -23.000000)">
		<g id="logotype-_x2F_-spotta" transform="translate(80.000000, 22.000000)">
			<g id="colour-2" transform="translate(0.000000, 9.600000)">
				<g id="blue">
					<path id="path-1_1_" class="st0" d="M-105.1,416.1c0,0,0.1,0,0.1,0h10.9c0.6,0,1,0.5,1,1s-0.4,1-1,1H-105c0,0-0.1,0-0.1,0v8
						c0,0.6-0.5,1-1,1c-0.6,0-1-0.5-1-1V411c0-2.3,1.9-4.2,4.2-4.2h9.8c2.3,0,4.2,1.9,4.2,4.2v15.2c0,0.6-0.4,1-1,1s-1-0.5-1-1V411
						c0-1.2-1-2.1-2.1-2.1h-9.8c-1.2,0-2.1,1-2.1,2.1V416.1z M-121.8,408.9v17.2c0,0.6-0.4,1-1,1c-0.6,0-1-0.5-1-1v-17.2h-8.2
						c-0.6,0-1-0.5-1-1c0-0.6,0.5-1,1-1h18.4c0.6,0,1,0.5,1,1c0,0.6-0.4,1-1,1H-121.8z M-146.6,408.9v17.2c0,0.6-0.5,1-1,1
						c-0.6,0-1-0.5-1-1v-17.2h-8.2c-0.6,0-1-0.5-1-1c0-0.6,0.5-1,1-1h18.4c0.6,0,1,0.5,1,1c0,0.6-0.4,1-1,1H-146.6z M-223.8,427.2
						c-2.3,0-4.2-1.9-4.2-4.2v-1.2c0-0.6,0.5-1,1-1s1,0.5,1,1v1.2c0,1.1,1,2.1,2.1,2.1h9.8c1.2,0,2.1-1,2.1-2.1v-2.8
						c0-1.2-1-2.1-2.1-2.1h-9.6c-2.3,0-4.2-1.9-4.2-4.2v-2.8c0-2.3,1.9-4.2,4.2-4.2h9.8c2.3,0,4.2,1.9,4.2,4.2v1.2c0,0.6-0.5,1-1,1
						s-1-0.5-1-1v-1.2c0-1.2-1-2.1-2.1-2.1h-9.8c-1.2,0-2.1,1-2.1,2.1v2.8c0,1.2,1,2.1,2.1,2.1h9.7c2.3,0,4.2,1.9,4.2,4.2v2.8
						c0,2.3-1.9,4.2-4.2,4.2L-223.8,427.2L-223.8,427.2z M-202.4,427.2c-0.6,0-1-0.5-1-1V411c0-2.3,1.9-4.2,4.2-4.2h9.8
						c2.3,0,4.2,1.9,4.2,4.2v2.8c0,2.3-1.9,4.2-4.2,4.2h-9.1c-0.6,0-1-0.5-1-1c0-0.6,0.5-1,1-1h9.1c1.2,0,2.1-1,2.1-2.1V411
						c0-1.2-1-2.1-2.1-2.1h-9.8c-1.2,0-2.1,1-2.1,2.1v15.1C-201.4,426.7-201.8,427.2-202.4,427.2z M-169.1,427.3
						c-2.5,0-5-0.9-6.9-2.7c-1.5-1.3-2.5-3-3-4.9c-0.1-0.6,0.2-1.1,0.7-1.3s1.1,0.2,1.3,0.7c0.4,1.5,1.2,2.9,2.4,3.9
						c1.6,1.4,3.7,2.2,5.8,2.1c2.2-0.1,4.2-1,5.6-2.6c3-3.3,2.8-8.4-0.5-11.4c-0.4-0.4-0.4-1-0.1-1.4c0.4-0.4,1-0.4,1.5-0.1
						c4.1,3.8,4.4,10.2,0.6,14.3c-1.8,2-4.3,3.1-7.1,3.3C-168.8,427.3-169,427.3-169.1,427.3z"/>
				</g>
				<defs>
					<filter id="Adobe_OpacityMaskFilter" filterUnits="userSpaceOnUse" x="-228" y="397.3" width="139" height="30">
						<feColorMatrix  type="matrix" values="1 0 0 0 0  0 1 0 0 0  0 0 1 0 0  0 0 0 1 0"/>
					</filter>
				</defs>
				<mask maskUnits="userSpaceOnUse" x="-228" y="397.3" width="139" height="30" id="mask-2">
					<g class="st1">
						<path id="path-1" class="st2" d="M-105.1,416.1c0,0,0.1,0,0.1,0h10.9c0.6,0,1,0.5,1,1s-0.4,1-1,1H-105c0,0-0.1,0-0.1,0v8
							c0,0.6-0.5,1-1,1c-0.6,0-1-0.5-1-1V411c0-2.3,1.9-4.2,4.2-4.2h9.8c2.3,0,4.2,1.9,4.2,4.2v15.2c0,0.6-0.4,1-1,1s-1-0.5-1-1V411
							c0-1.2-1-2.1-2.1-2.1h-9.8c-1.2,0-2.1,1-2.1,2.1V416.1z M-121.8,408.9v17.2c0,0.6-0.4,1-1,1c-0.6,0-1-0.5-1-1v-17.2h-8.2
							c-0.6,0-1-0.5-1-1c0-0.6,0.5-1,1-1h18.4c0.6,0,1,0.5,1,1c0,0.6-0.4,1-1,1H-121.8z M-146.6,408.9v17.2c0,0.6-0.5,1-1,1
							c-0.6,0-1-0.5-1-1v-17.2h-8.2c-0.6,0-1-0.5-1-1c0-0.6,0.5-1,1-1h18.4c0.6,0,1,0.5,1,1c0,0.6-0.4,1-1,1H-146.6z M-223.8,427.2
							c-2.3,0-4.2-1.9-4.2-4.2v-1.2c0-0.6,0.5-1,1-1s1,0.5,1,1v1.2c0,1.1,1,2.1,2.1,2.1h9.8c1.2,0,2.1-1,2.1-2.1v-2.8
							c0-1.2-1-2.1-2.1-2.1h-9.6c-2.3,0-4.2-1.9-4.2-4.2v-2.8c0-2.3,1.9-4.2,4.2-4.2h9.8c2.3,0,4.2,1.9,4.2,4.2v1.2c0,0.6-0.5,1-1,1
							s-1-0.5-1-1v-1.2c0-1.2-1-2.1-2.1-2.1h-9.8c-1.2,0-2.1,1-2.1,2.1v2.8c0,1.2,1,2.1,2.1,2.1h9.7c2.3,0,4.2,1.9,4.2,4.2v2.8
							c0,2.3-1.9,4.2-4.2,4.2L-223.8,427.2L-223.8,427.2z M-202.4,427.2c-0.6,0-1-0.5-1-1V411c0-2.3,1.9-4.2,4.2-4.2h9.8
							c2.3,0,4.2,1.9,4.2,4.2v2.8c0,2.3-1.9,4.2-4.2,4.2h-9.1c-0.6,0-1-0.5-1-1c0-0.6,0.5-1,1-1h9.1c1.2,0,2.1-1,2.1-2.1V411
							c0-1.2-1-2.1-2.1-2.1h-9.8c-1.2,0-2.1,1-2.1,2.1v15.1C-201.4,426.7-201.8,427.2-202.4,427.2z M-169.1,427.3
							c-2.5,0-5-0.9-6.9-2.7c-1.5-1.3-2.5-3-3-4.9c-0.1-0.6,0.2-1.1,0.7-1.3s1.1,0.2,1.3,0.7c0.4,1.5,1.2,2.9,2.4,3.9
							c1.6,1.4,3.7,2.2,5.8,2.1c2.2-0.1,4.2-1,5.6-2.6c3-3.3,2.8-8.4-0.5-11.4c-0.4-0.4-0.4-1-0.1-1.4c0.4-0.4,1-0.4,1.5-0.1
							c4.1,3.8,4.4,10.2,0.6,14.3c-1.8,2-4.3,3.1-7.1,3.3C-168.8,427.3-169,427.3-169.1,427.3z"/>
					</g>
				</mask>
				<g id="panel-_x2F_-building-block" class="st3">
					<g transform="translate(0.000000, -9.600000)">
						<g id="panel-_x2F_-shadow-_x2F_-deep">
							<g id="colour">
								<g>
									<rect id="path-3_1_" x="-228" y="406.9" class="st4" width="139" height="30"/>
								</g>
							</g>
						</g>
						<g id="panel-_x2F_-colour-_x2F_-blue">
							<rect id="colour_1_" x="-228" y="406.9" class="st0" width="139" height="30"/>
						</g>
					</g>
				</g>
			</g>
			<g id="colour-1" transform="translate(44.336207, 1.200000)">
				<g id="black">
					<path id="path-5_1_" class="st2" d="M-223.2,425c-0.1,0-0.1,0-0.2,0c-0.6-0.1-1-0.6-0.9-1.2c0.5-2.6,2-4.9,4.3-6.4
						s5.1-2.1,7.8-1.6c0.4,0.1,0.9,0.2,1.3,0.3c0.5,0.2,0.9,0.7,0.7,1.3c-0.2,0.5-0.8,0.8-1.3,0.6c-0.4-0.1-0.7-0.2-1.1-0.2
						c-2.2-0.4-4.4,0.1-6.2,1.3c-1.8,1.2-3,3-3.4,5.1C-222.2,424.7-222.7,425-223.2,425z M-225.2,417.8c-0.2,0-0.3,0-0.5-0.1
						c-0.5-0.2-0.7-0.9-0.4-1.3c1.8-3.3,5.4-5.3,9.3-5.3c0.6,0,1.1,0.5,1.1,1s-0.5,1-1.1,1c-3.1,0-6,1.6-7.4,4.2
						C-224.4,417.7-224.8,417.8-225.2,417.8z M-226.9,412.1c-0.2,0-0.5-0.1-0.7-0.2c-0.5-0.4-0.5-1-0.2-1.4c1.6-1.8,3.8-3.1,6.3-3.5
						c0.6-0.1,1.1,0.2,1.2,0.8c0.1,0.5-0.3,1.1-0.9,1.2c-2,0.4-3.7,1.3-5,2.8C-226.3,412-226.6,412.1-226.9,412.1z M-213.8,428.5
						c-1.6,0-2.9-1.2-2.9-2.7s1.3-2.7,2.9-2.7c1.6,0,2.9,1.2,2.9,2.7S-212.2,428.5-213.8,428.5z"/>
				</g>
				<defs>
					<filter id="Adobe_OpacityMaskFilter_1_" filterUnits="userSpaceOnUse" x="-272.3" y="405.7" width="139" height="30">
						<feColorMatrix  type="matrix" values="1 0 0 0 0  0 1 0 0 0  0 0 1 0 0  0 0 0 1 0"/>
					</filter>
				</defs>
				<mask maskUnits="userSpaceOnUse" x="-272.3" y="405.7" width="139" height="30" id="mask-6">
					<g class="st5">
						<path id="path-5" class="st2" d="M-223.2,425c-0.1,0-0.1,0-0.2,0c-0.6-0.1-1-0.6-0.9-1.2c0.5-2.6,2-4.9,4.3-6.4
							s5.1-2.1,7.8-1.6c0.4,0.1,0.9,0.2,1.3,0.3c0.5,0.2,0.9,0.7,0.7,1.3c-0.2,0.5-0.8,0.8-1.3,0.6c-0.4-0.1-0.7-0.2-1.1-0.2
							c-2.2-0.4-4.4,0.1-6.2,1.3c-1.8,1.2-3,3-3.4,5.1C-222.2,424.7-222.7,425-223.2,425z M-225.2,417.8c-0.2,0-0.3,0-0.5-0.1
							c-0.5-0.2-0.7-0.9-0.4-1.3c1.8-3.3,5.4-5.3,9.3-5.3c0.6,0,1.1,0.5,1.1,1s-0.5,1-1.1,1c-3.1,0-6,1.6-7.4,4.2
							C-224.4,417.7-224.8,417.8-225.2,417.8z M-226.9,412.1c-0.2,0-0.5-0.1-0.7-0.2c-0.5-0.4-0.5-1-0.2-1.4
							c1.6-1.8,3.8-3.1,6.3-3.5c0.6-0.1,1.1,0.2,1.2,0.8c0.1,0.5-0.3,1.1-0.9,1.2c-2,0.4-3.7,1.3-5,2.8
							C-226.3,412-226.6,412.1-226.9,412.1z M-213.8,428.5c-1.6,0-2.9-1.2-2.9-2.7s1.3-2.7,2.9-2.7c1.6,0,2.9,1.2,2.9,2.7
							S-212.2,428.5-213.8,428.5z"/>
					</g>
				</mask>
				<g id="panel-_x2F_-building-block_1_" class="st6">
					<g transform="translate(-44.336207, -1.200000)">
						<g id="panel-_x2F_-shadow-_x2F_-deep_1_">
							<g id="colour_2_">
								<g>
									<rect id="path-7_1_" x="-228" y="406.9" class="st2" width="139" height="30"/>
								</g>
							</g>
						</g>
					</g>
				</g>
			</g>
		</g>
	</g>
</g>
</svg>
