<?xml version="1.0" encoding="UTF-8"?>
<svg width="139px" height="29px" viewBox="0 0 139 29" version="1.1" xmlns="http://www.w3.org/2000/svg" xmlns:xlink="http://www.w3.org/1999/xlink">
    <!-- Generator: Sketch 55.2 (78181) - https://sketchapp.com -->
    <title>logotype</title>
    <desc>Created with Sketch.</desc>
    <defs>
        <path d="M122.872573,9.20910151 C122.907839,9.20528608 122.94357,9.2033264 122.979661,9.2033264 L133.902619,9.2033264 C134.480894,9.2033264 134.930663,9.66985447 134.930663,10.2212058 C134.930663,10.7725572 134.480894,11.2390852 133.902619,11.2390852 L122.979661,11.2390852 C122.943434,11.2390852 122.907712,11.2372543 122.872573,11.2336864 L122.872573,19.2548857 C122.872573,19.8274428 122.401387,20.2727651 121.84453,20.2727651 C121.287673,20.2727651 120.816487,19.806237 120.816487,19.2548857 L120.816487,4.15634096 C120.816487,1.86611227 122.701233,9.76996262e-14 125.01433,9.76996262e-14 L134.802157,9.76996262e-14 C137.115254,9.76996262e-14 139,1.86611227 139,4.15634096 L139,19.3397089 C139,19.8910603 138.550231,20.3575884 137.971957,20.3575884 C137.393683,20.3575884 136.943914,19.8910603 136.943914,19.3397089 L136.943914,4.15634096 C136.943914,2.99002079 135.980123,2.03575884 134.802157,2.03575884 L125.01433,2.03575884 C123.836364,2.03575884 122.872573,2.99002079 122.872573,4.15634096 L122.872573,9.20910151 Z M106.209707,2.05696466 L106.209707,19.2548857 C106.231125,19.8274428 105.759938,20.2939709 105.181664,20.2939709 C104.60339,20.2939709 104.153621,19.8274428 104.153621,19.2760915 L104.153621,2.05696466 L95.9721109,2.05696466 C95.3938367,2.05696466 94.9440678,1.59043659 94.9440678,1.03908524 C94.9440678,0.487733888 95.4152542,0.0212058212 95.9721109,0.0212058212 L114.391217,0.0212058212 C114.969492,0.0212058212 115.41926,0.487733888 115.41926,1.03908524 C115.41926,1.59043659 114.969492,2.05696466 114.391217,2.05696466 L106.209707,2.05696466 Z M81.4081664,2.05696466 L81.4081664,19.2548857 C81.4081664,19.8274428 80.93698,20.2939709 80.3801233,20.2939709 C79.801849,20.2939709 79.3520801,19.8274428 79.3520801,19.2760915 L79.3520801,2.05696466 L71.1491525,2.05696466 C70.5708783,2.05696466 70.1211094,1.59043659 70.1211094,1.03908524 C70.1211094,0.487733888 70.5922958,0.0212058212 71.1491525,0.0212058212 L89.5682589,0.0212058212 C90.1465331,0.0212058212 90.596302,0.487733888 90.596302,1.03908524 C90.596302,1.59043659 90.1465331,2.05696466 89.5682589,2.05696466 L81.4081664,2.05696466 Z M4.19784284,20.2727651 C1.88474576,20.2727651 7.81597009e-14,18.4066528 7.81597009e-14,16.1164241 L7.81597009e-14,14.9076923 C7.81597009e-14,14.3351351 0.471186441,13.8898129 1.02804314,13.8898129 C1.58489985,13.8898129 2.05608629,14.356341 2.05608629,14.9076923 L2.05608629,16.1164241 C2.05608629,17.2615385 3.01987673,18.2158004 4.19784284,18.2158004 L13.9642527,18.2158004 C15.1422188,18.2158004 16.1060092,17.2615385 16.1060092,16.0952183 L16.1060092,13.2748441 C16.1060092,12.1085239 15.1422188,11.154262 13.9642527,11.154262 L4.32634823,11.154262 C2.01325116,11.154262 0.128505393,9.28814969 0.128505393,6.997921 L0.128505393,4.17754678 C0.128505393,1.88731809 2.01325116,0.0212058212 4.34776579,0.0212058212 L14.1355932,0.0212058212 C16.4486903,0.0212058212 18.3334361,1.88731809 18.3334361,4.17754678 L18.3334361,5.38627859 C18.3334361,5.95883576 17.8622496,6.404158 17.3053929,6.404158 C16.7485362,6.404158 16.2773498,5.93762994 16.2773498,5.38627859 L16.2773498,4.17754678 C16.2773498,3.01122661 15.3135593,2.05696466 14.1355932,2.05696466 L4.32634823,2.05696466 C3.14838213,2.05696466 2.18459168,3.01122661 2.18459168,4.17754678 L2.18459168,6.997921 C2.18459168,8.16424116 3.14838213,9.0972973 4.32634823,9.11850312 L13.9856703,9.11850312 C16.2987673,9.11850312 18.1835131,10.9846154 18.1835131,13.2748441 L18.1835131,16.0952183 C18.1835131,18.385447 16.2987673,20.2515593 13.9856703,20.2515593 L4.19784284,20.2515593 L4.19784284,20.2727651 Z M25.5725732,20.2727651 C24.9942989,20.2727651 24.54453,19.806237 24.54453,19.2548857 L24.54453,4.15634096 C24.54453,1.86611227 26.4292758,4.61852778e-14 28.7423729,4.61852778e-14 L38.5087827,4.61852778e-14 C40.8218798,4.61852778e-14 42.7066256,1.86611227 42.7066256,4.15634096 L42.7066256,6.997921 C42.7066256,9.28814969 40.8218798,11.154262 38.5087827,11.154262 L29.3634823,11.154262 C28.785208,11.154262 28.3354391,10.6877339 28.3354391,10.1363825 C28.3354391,9.58503119 28.8066256,9.11850312 29.3634823,9.11850312 L38.5087827,9.11850312 C39.6867488,9.11850312 40.6291217,8.16424116 40.6505393,6.997921 L40.6505393,4.15634096 C40.6505393,2.99002079 39.6867488,2.03575884 38.5087827,2.03575884 L28.7423729,2.03575884 C27.5644068,2.03575884 26.6006163,2.99002079 26.6006163,4.15634096 L26.6006163,19.2548857 C26.6006163,19.8274428 26.1508475,20.2727651 25.5725732,20.2727651 Z M58.85547,20.4 C56.3067797,20.4 53.8651772,19.4669439 51.9804314,17.7492723 C50.524037,16.4345114 49.4959938,14.7168399 49.0033898,12.8295218 C48.8534669,12.2781705 49.1961479,11.7268191 49.7530046,11.5783784 C50.3098613,11.4299376 50.866718,11.7692308 51.016641,12.3205821 C51.4021572,13.8261954 52.2374422,15.183368 53.3939908,16.243659 C55.0003082,17.6856549 57.0563945,18.4490644 59.2409861,18.3430353 C61.4041602,18.2582121 63.4174114,17.3251559 64.8738059,15.7559252 C67.8936826,12.4902287 67.6795069,7.4008316 64.3812018,4.38960499 C63.9528505,4.00790021 63.931433,3.35051975 64.3169492,2.94760915 C64.7024653,2.52349272 65.3664099,2.5022869 65.7733436,2.88399168 C69.9069337,6.63742204 70.1853621,13.04158 66.394453,17.1343035 C64.5525424,19.1276507 62.0466872,20.2727651 59.3266564,20.4 C59.1553159,20.4 59.0053929,20.4 58.85547,20.4 Z" id="path-1"></path>
        <rect id="path-3" x="0" y="0" width="139" height="30"></rect>
        <filter x="-12.9%" y="-50.0%" width="130.2%" height="240.0%" filterUnits="objectBoundingBox" id="filter-4">
            <feOffset dx="3" dy="6" in="SourceAlpha" result="shadowOffsetOuter1"></feOffset>
            <feGaussianBlur stdDeviation="6" in="shadowOffsetOuter1" result="shadowBlurOuter1"></feGaussianBlur>
            <feColorMatrix values="0 0 0 0 0   0 0 0 0 0   0 0 0 0 0  0 0 0 0.2 0" type="matrix" in="shadowBlurOuter1"></feColorMatrix>
        </filter>
        <path d="M4.82666542,18.0929363 C4.7608461,18.0929363 4.69502678,18.0929363 4.62920747,18.0721845 C4.05877337,17.9684252 3.66385746,17.4496288 3.77355633,16.9100805 C4.2781711,14.3160986 5.8139552,12.0541462 8.11763134,10.5600126 C10.4213075,9.06587899 13.1857189,8.50557888 15.9281905,8.98287156 C16.3669859,9.06587899 16.8057814,9.16963827 17.2445768,9.2941494 C17.7930712,9.46016425 18.100228,10.0204644 17.9247098,10.5600126 C17.7491916,11.078809 17.1568177,11.369335 16.5863837,11.2033202 C16.2353473,11.0995609 15.8843109,11.0165535 15.5332746,10.9542979 C13.3392973,10.5807645 11.14532,11.0165535 9.30237908,12.2201611 C7.48137793,13.4237687 6.25275065,15.2084284 5.85783474,17.283614 C5.77007565,17.7609066 5.3312802,18.0929363 4.82666542,18.0929363 Z M2.83014609,10.9542979 C2.65462791,10.9542979 2.5010495,10.9127942 2.32553132,10.8297867 C1.79897677,10.5807645 1.60151882,9.9582088 1.88673586,9.48091611 C3.72967678,6.20212286 7.30585975,4.18919283 11.2330791,4.23069655 C11.825453,4.23069655 12.2861882,4.68723738 12.2861882,5.24753749 C12.2861882,5.8078376 11.8035132,6.24362658 11.2111393,6.24362658 C8.0737518,6.22287472 5.22158133,7.82076763 3.77355633,10.4355015 C3.57609837,10.7675312 3.20312223,10.9542979 2.83014609,10.9542979 Z M1.05302449,5.18528192 C0.811686994,5.18528192 0.592289266,5.12302635 0.39483131,4.95701151 C-0.0659039192,4.60422995 -0.131723238,3.98167427 0.2412529,3.5458853 C1.82091654,1.69897012 4.0368336,0.453858758 6.49408816,0.0180697822 C7.06452225,-0.0856894977 7.61301657,0.267092054 7.72271543,0.827392165 C7.8324143,1.36694042 7.45943816,1.88573682 6.86706429,1.9894961 C4.89248474,2.34227765 3.13730291,3.33836674 1.88673586,4.81174851 C1.68927791,5.06077079 1.38212109,5.18528192 1.05302449,5.18528192 Z M14.1510689,21.6 C12.5516246,21.6 11.2550189,20.3735982 11.2550189,18.860755 C11.2550189,17.3479118 12.5516246,16.12151 14.1510689,16.12151 C15.7505131,16.12151 17.0471189,17.3479118 17.0471189,18.860755 C17.0471189,20.3735982 15.7505131,21.6 14.1510689,21.6 Z" id="path-5"></path>
        <rect id="path-7" x="0" y="0" width="139" height="30"></rect>
        <filter x="-12.9%" y="-50.0%" width="130.2%" height="240.0%" filterUnits="objectBoundingBox" id="filter-8">
            <feOffset dx="3" dy="6" in="SourceAlpha" result="shadowOffsetOuter1"></feOffset>
            <feGaussianBlur stdDeviation="6" in="shadowOffsetOuter1" result="shadowBlurOuter1"></feGaussianBlur>
            <feColorMatrix values="0 0 0 0 0   0 0 0 0 0   0 0 0 0 0  0 0 0 0.2 0" type="matrix" in="shadowBlurOuter1"></feColorMatrix>
        </filter>
    </defs>
    <g id="symbols" stroke="none" stroke-width="1" fill="none" fill-rule="evenodd">
        <g id="menu-/-desktop---scrolling" transform="translate(-80.000000, -23.000000)">
            <g id="logotype-/-spotta" transform="translate(80.000000, 22.000000)">
                <g id="colour-2" transform="translate(0.000000, 9.600000)">
                    <mask id="mask-2" fill="white">
                        <use xlink:href="#path-1"></use>
                    </mask>
                    <use id="blue" fill="#2A70B7" fill-rule="nonzero" xlink:href="#path-1"></use>
                    <g id="panel-/-building-block" mask="url(#mask-2)">
                        <g transform="translate(0.000000, -9.600000)">
                            <g id="panel-/-shadow-/-deep">
                                <g id="colour">
                                    <use fill="black" fill-opacity="1" filter="url(#filter-4)" xlink:href="#path-3"></use>
                                    <use fill="#FF78C3" fill-rule="evenodd" xlink:href="#path-3"></use>
                                </g>
                            </g>
                            <g id="panel-/-colour-/-blue" fill-rule="evenodd">
                                <rect id="colour" fill="#2A70B7" x="0" y="0" width="139" height="30"></rect>
                            </g>
                        </g>
                    </g>
                </g>
                <g id="colour-1" transform="translate(44.336207, 1.200000)">
                    <mask id="mask-6" fill="white">
                        <use xlink:href="#path-5"></use>
                    </mask>
                    <use id="black" fill="#022F54" fill-rule="nonzero" xlink:href="#path-5"></use>
                    <g id="panel-/-building-block" mask="url(#mask-6)">
                        <g transform="translate(-44.336207, -1.200000)">
                            <g id="panel-/-shadow-/-deep">
                                <g id="colour">
                                    <use fill="black" fill-opacity="1" filter="url(#filter-8)" xlink:href="#path-7"></use>
                                    <use fill="#FF78C3" fill-rule="evenodd" xlink:href="#path-7"></use>
                                </g>
                            </g>
                            <g id="panel-/-colour-/-black" fill-rule="evenodd">
                                <rect id="colour" fill="#000000" x="0" y="0" width="139" height="30"></rect>
                            </g>
                        </g>
                    </g>
                </g>
            </g>
        </g>
    </g>
</svg>